#!OML:ASF H:\MichaelJackson\Top Level 1\Subject 1\Session 1\male.ASF
:FULLY-SPECIFIED
:DEGREES
430
root -12.5325 16.8426 -33.9744 2.69974 13.0047 -3.393
lowerback -5.83111 -3.21551 6.11667
upperback 5.18407 -4.80347 -1.45468
thorax 8.14085 -1.93905 -5.56255
lowerneck -18.8514 -0.401081 -1.50675
upperneck -4.32041 -0.340704 6.38466
head 1.88075 0.0792333 2.3523
rclavicle 4.76089e-014 -4.77083e-015
rhumerus -28.909 -5.5476 -84.4501
rradius 46.6727
rwrist -4.04945
rhand -15.5297 -15.2399
rfingers 7.12502
rthumb 10.6538 -44.9498
lclavicle 4.76089e-014 -4.77083e-015
lhumerus -32.58 -2.77046 83.3042
lradius 46.0196
lwrist 11.4303
lhand 6.9145 14.4991
lfingers 7.12502
lthumb 32.1943 41.6659
rfemur -35.4586 -0.779821 5.27686
rtibia 85.8068
rfoot 30.5602 32.1374
rtoes 7.18087
lfemur -21.6099 4.92448 -19.6193
ltibia 40.9844
lfoot -14.1648 -10.0005
ltoes 56.7129
431
root -12.5422 16.8738 -33.9643 1.98685 13.4544 -3.93931
lowerback -5.47794 -3.42751 6.4555
upperback 5.42406 -5.11303 -1.33365
thorax 8.13936 -2.06936 -5.63787
lowerneck -18.636 -0.385169 -1.68393
upperneck -4.53752 -0.276091 6.57276
head 1.76997 0.112721 2.44872
rclavicle 2.48481e-015 -5.56597e-015
rhumerus -29.0276 -5.94811 -83.9669
rradius 46.925
rwrist -4.32477
rhand -16.7255 -16.1979
rfingers 7.12502
rthumb 9.50018 -45.9638
lclavicle 2.48481e-015 -5.56597e-015
lhumerus -32.6667 -3.04403 83.1775
lradius 46.4952
lwrist 11.4906
lhand 7.16769 14.4292
lfingers 7.12502
lthumb 32.4353 41.5468
rfemur -37.202 1.32217 4.09885
rtibia 90.1742
rfoot 33.8464 30.6519
rtoes 10.6702
lfemur -20.6953 4.58814 -18.974
ltibia 40.2814
lfoot -13.7678 -9.72645
ltoes 56.7243
432
root -12.5533 16.8708 -33.9525 1.11392 13.8732 -4.32465
lowerback -5.07009 -3.64271 6.70096
upperback 5.73978 -5.40967 -1.28486
thorax 8.18945 -2.19187 -5.73335
lowerneck -18.4625 -0.381936 -1.89212
upperneck -4.62739 -0.229554 6.77994
head 1.71165 0.140713 2.5584
rclavicle 7.70291e-014 -3.4191e-014
rhumerus -29.2188 -6.13089 -83.5352
rradius 47.232
rwrist -4.30359
rhand -18.3461 -17.2718
rfingers 7.12502
rthumb 7.9363 -47.1028
lclavicle 7.70291e-014 -3.4191e-014
lhumerus -32.6384 -3.33178 83.0499
lradius 46.7076
lwrist 11.4583
lhand 7.36331 14.1997
lfingers 7.12502
lthumb 32.6215 41.279
rfemur -38.2031 2.89315 2.89667
rtibia 94.3407
rfoot 32.4091 33.6236
rtoes 0.566078
lfemur -19.5528 4.31656 -18.4893
ltibia 39.5248
lfoot -13.2959 -9.56834
ltoes 56.9275
433
root -12.5549 16.9371 -33.9341 0.227461 14.1713 -4.87705
lowerback -4.57888 -3.8196 7.03598
upperback 6.03484 -5.65788 -1.17899
thorax 8.17242 -2.29067 -5.80166
lowerneck -18.4213 -0.378095 -1.92422
upperneck -4.63361 -0.218284 6.77594
head 1.70206 0.14554 2.56316
rclavicle -7.15625e-015 2.94201e-014
rhumerus -29.4016 -6.18645 -83.0827
rradius 47.5034
rwrist -3.73909
rhand -19.6347 -18.3251
rfingers 7.12502
rthumb 6.69249 -48.1993
lclavicle -7.15625e-015 2.94201e-014
lhumerus -32.5297 -3.56185 82.9229
lradius 46.8642
lwrist 11.1198
lhand 7.41965 14.2421
lfingers 7.12502
lthumb 32.6751 41.3103
rfemur -40.1624 5.26909 1.59081
rtibia 98.1397
rfoot 35.9928 31.6206
rtoes 4.18267
lfemur -18.1619 4.07227 -17.827
ltibia 38.4287
lfoot -12.8065 -9.33168
ltoes 57.2973
434
root -12.5402 16.9843 -33.8897 -0.60147 14.6064 -4.55307
lowerback -4.50982 -4.03606 6.69854
upperback 6.45316 -5.91681 -1.35567
thorax 8.56385 -2.40203 -5.84438
lowerneck -18.331 -0.362529 -2.03901
upperneck -4.59816 -0.178513 6.83443
head 1.69845 0.167432 2.60674
rclavicle 8.54774e-015 2.3059e-014
rhumerus -29.6227 -6.04755 -82.7011
rradius 47.9384
rwrist -2.89138
rhand -21.4504 -21.0189
rfingers 7.12502
rthumb 4.93942 -50.9414
lclavicle 8.54774e-015 2.3059e-014
lhumerus -32.3024 -3.80612 82.813
lradius 46.7561
lwrist 10.8351
lhand 7.45202 13.9379
lfingers 7.12502
lthumb 32.7059 40.9997
rfemur -41.2919 7.04038 -0.758604
rtibia 101.457
rfoot 36.1142 31.7535
rtoes 2.03668
lfemur -16.4065 3.77671 -18.1818
ltibia 37.242
lfoot -12.4402 -9.20579
ltoes 57.6891
435
root -12.5231 17.0388 -33.8408 -1.53929 15.0935 -4.1723
lowerback -4.37239 -4.26924 6.2515
upperback 6.91941 -6.18237 -1.54684
thorax 8.97875 -2.52247 -5.84144
lowerneck -18.3077 -0.356689 -2.12544
upperneck -4.4984 -0.160563 6.88563
head 1.72919 0.179997 2.6428
rclavicle -3.61788e-014 -1.35174e-014
rhumerus -29.8672 -5.90133 -82.2902
rradius 47.4722
rwrist 0.311338
rhand -24.2936 -19.9077
rfingers 7.12502
rthumb 2.19379 -49.8762
lclavicle -3.61788e-014 -1.35174e-014
lhumerus -32.0468 -3.9921 82.726
lradius 46.6049
lwrist 10.5868
lhand 7.58922 13.8874
lfingers 7.12502
lthumb 32.8364 40.922
rfemur -42.3053 8.83884 -3.28735
rtibia 104.156
rfoot 37.1889 29.2131
rtoes 4.12978
lfemur -14.3469 3.32599 -18.5872
ltibia 35.8219
lfoot -12.0358 -9.11974
ltoes 58.7234
436
root -12.5217 17.0771 -33.8352 -2.38084 15.4613 -4.4721
lowerback -3.71884 -4.4723 6.39863
upperback 7.17589 -6.43184 -1.52197
thorax 8.83017 -2.63897 -5.86712
lowerneck -18.3124 -0.334743 -2.15977
upperneck -4.34603 -0.133614 6.89315
head 1.78131 0.196245 2.65588
rclavicle -4.23411e-014 1.03368e-014
rhumerus -30.1577 -5.68085 -81.8645
rradius 47.536
rwrist 3.56779
rhand -25.9319 -21.3068
rfingers 7.12502
rthumb 0.611481 -51.2857
lclavicle -4.23411e-014 1.03368e-014
lhumerus -31.8755 -4.08777 82.6686
lradius 46.5404
lwrist 10.4084
lhand 7.30762 13.8376
lfingers 7.12502
lthumb 32.5685 40.9279
rfemur -44.2319 10.2883 -5.0523
rtibia 106.428
rfoot 37.3857 26.7146
rtoes 6.08679
lfemur -12.9758 3.01525 -18.3031
ltibia 34.5745
lfoot -11.3954 -8.6314
ltoes 58.5647
437
root -12.5239 17.1066 -33.8232 -3.41052 15.762 -4.75629
lowerback -3.02926 -4.65605 6.41704
upperback 7.53326 -6.64434 -1.49206
thorax 8.79036 -2.73854 -5.81339
lowerneck -18.2929 -0.319098 -2.11764
upperneck -4.22447 -0.127137 6.83028
head 1.81802 0.198172 2.62817
rclavicle 2.98177e-015 -1.43125e-014
rhumerus -30.417 -5.64426 -81.3363
rradius 47.569
rwrist 7.32619
rhand -26.631 -21.6578
rfingers 7.12502
rthumb -0.0636814 -51.6376
lclavicle 2.98177e-015 -1.43125e-014
lhumerus -31.5669 -4.0683 82.5982
lradius 46.3519
lwrist 10.1119
lhand 7.53754 13.904
lfingers 7.12502
lthumb 32.7872 40.9489
rfemur -45.62 11.3943 -6.47344
rtibia 107.967
rfoot 34.9545 25.7441
rtoes 0.223819
lfemur -11.4439 2.8836 -17.984
ltibia 33.5409
lfoot -10.8107 -8.27666
ltoes 58.4506
438
root -12.5211 17.1257 -33.821 -4.27345 16.2197 -4.92507
lowerback -2.38956 -4.88082 6.39099
upperback 7.83856 -6.90732 -1.49246
thorax 8.71681 -2.86802 -5.76938
lowerneck -18.2374 -0.312775 -1.96924
upperneck -4.12156 -0.151 6.66911
head 1.84122 0.179618 2.54386
rclavicle 6.22196e-014 -3.81667e-014
rhumerus -30.6681 -5.62383 -80.7732
rradius 47.7007
rwrist 11.3435
rhand -27.0315 -22.1862
rfingers 7.12502
rthumb -0.450529 -52.1655
lclavicle 6.22196e-014 -3.81667e-014
lhumerus -31.1905 -4.02494 82.5848
lradius 46.0743
lwrist 10.0185
lhand 7.59422 14.2612
lfingers 7.12502
lthumb 32.8411 41.2948
rfemur -47.0818 11.9935 -8.11781
rtibia 108.666
rfoot 33.2783 22.3035
rtoes 0.0405475
lfemur -10.0729 2.46826 -17.8412
ltibia 32.6773
lfoot -10.3103 -8.30768
ltoes 58.9594
